<?xml version="1.0" standalone="no"?>
<!DOCTYPE svg PUBLIC "-//W3C//DTD SVG 20010904//EN"
 "http://www.w3.org/TR/2001/REC-SVG-20010904/DTD/svg10.dtd">
<svg version="1.0" xmlns="http://www.w3.org/2000/svg"
 width="500.000000pt" height="500.000000pt" viewBox="0 0 500.000000 500.000000"
 preserveAspectRatio="xMidYMid meet">

<g transform="translate(0.000000,500.000000) scale(0.100000,-0.100000)"
fill="#000000" stroke="none">
<path d="M1621 3056 c-102 -34 -187 -119 -217 -219 -16 -50 -21 -57 -44 -57
-83 0 -212 -107 -251 -208 -30 -76 -32 -215 -5 -287 44 -116 133 -192 259
-219 17 -4 27 -13 27 -24 0 -83 85 -194 188 -244 62 -31 73 -33 172 -33 92 0
112 3 160 26 100 47 160 118 185 218 12 43 14 46 71 65 70 23 163 109 194 178
41 94 44 239 6 329 -37 89 -123 165 -213 189 -31 7 -43 16 -43 29 0 34 -61
139 -102 176 -69 63 -138 89 -248 92 -62 2 -110 -2 -139 -11z m217 -233 c15
-11 34 -32 42 -47 15 -27 14 -28 -20 -54 -19 -14 -54 -46 -76 -69 l-42 -43
-67 67 -68 68 19 35 c26 48 76 72 137 67 27 -2 60 -13 75 -24z m-379 -298 c18
-25 50 -59 72 -77 l39 -31 -27 -18 c-16 -10 -49 -41 -74 -70 l-46 -52 -39 19
c-57 28 -77 62 -77 129 0 65 20 100 74 127 19 10 37 18 40 18 3 0 20 -20 38
-45z m665 6 c45 -39 60 -124 31 -181 -17 -32 -61 -70 -82 -70 -8 0 -43 30 -77
66 l-61 65 70 73 c71 74 82 78 119 47z m-261 -420 c62 -33 -28 -131 -120 -131
-46 0 -108 37 -126 75 -9 20 -17 40 -17 45 0 6 30 39 67 74 l67 63 52 -56 c29
-31 63 -63 77 -70z"/>
<path d="M3058 2629 c-36 -21 -16 -79 27 -79 12 0 26 5 33 12 7 7 12 21 12 33
0 40 -35 56 -72 34z"/>
<path d="M3476 2624 c-31 -31 -9 -74 38 -74 18 0 46 27 46 45 0 20 -28 45 -50
45 -10 0 -26 -7 -34 -16z"/>
<path d="M2662 2408 l3 -203 48 -3 47 -3 0 74 c0 100 17 117 56 55 87 -141 73
-127 132 -128 l52 0 -55 86 c-30 47 -63 97 -72 111 -20 29 -18 32 64 135 29
37 53 69 53 72 0 4 -21 6 -47 6 -51 0 -52 -2 -167 -155 -14 -18 -15 -13 -16
68 l0 87 -50 0 -50 0 2 -202z"/>
<path d="M3245 2552 c-3 -16 -19 -39 -35 -51 -34 -24 -39 -51 -11 -51 17 0 19
-10 23 -97 5 -111 16 -138 66 -154 34 -11 111 -3 113 12 6 50 4 54 -34 56 -21
0 -41 4 -45 8 -4 4 -7 43 -7 88 l0 82 43 3 c41 3 42 4 42 38 0 34 0 34 -45 34
-43 0 -45 1 -45 30 0 26 -3 30 -29 30 -24 0 -31 -5 -36 -28z"/>
<path d="M3047 2514 c-4 -4 -7 -76 -7 -161 l0 -153 45 0 46 0 -3 158 -3 157
-35 3 c-20 2 -39 0 -43 -4z"/>
<path d="M3470 2361 l0 -161 40 0 40 0 1 140 c1 77 2 148 3 158 1 13 -8 18
-41 20 l-43 3 0 -160z"/>
</g>
</svg>
